<svg width="30" height="30" viewBox="0 0 30 30" fill="none" xmlns="http://www.w3.org/2000/svg">
<path fill-rule="evenodd" clip-rule="evenodd" d="M22.5 15.5662C22.5 16.7803 22.35 17.9944 22.35 17.9944C22.35 17.9944 22.2038 19.0275 21.7537 19.4831C21.1838 20.0803 20.5444 20.0831 20.2509 20.1178C18.1519 20.2697 15 20.2744 15 20.2744C15 20.2744 11.1 20.2388 9.9 20.1244C9.56625 20.0616 8.81625 20.0803 8.24625 19.4831C7.79625 19.0275 7.65 17.9944 7.65 17.9944C7.65 17.9944 7.5 16.7803 7.5 15.5662V14.4281C7.5 13.2141 7.65 12.0009 7.65 12.0009C7.65 12.0009 7.79625 10.9669 8.24625 10.5113C8.81625 9.91406 9.45562 9.91125 9.74906 9.87656C11.8481 9.72469 14.9972 9.72469 14.9972 9.72469H15.0028C15.0028 9.72469 18.1519 9.72469 20.2509 9.87656C20.5444 9.91125 21.1838 9.91406 21.7537 10.5113C22.2038 10.9669 22.35 12.0009 22.35 12.0009C22.35 12.0009 22.5 13.2141 22.5 14.4281V15.5662ZM15 0C6.71531 0 0 6.71531 0 15C0 23.2837 6.71531 30 15 30C23.2847 30 30 23.2837 30 15C30 6.71531 23.2847 0 15 0ZM13.4514 16.9453L17.5042 14.8453L13.4505 12.7303L13.4514 16.9453Z" fill="#BDC4CD"/>
</svg>
