<svg width="29" height="35" viewBox="0 0 29 35" fill="none" xmlns="http://www.w3.org/2000/svg">
<path d="M9.15106 24.8012L3.34548 27.9234C3.0048 28.1065 0.311738 29.1996 0.0268555 29.445C5.41408 33.5016 10.1687 34.4054 14.9427 34.4054C19.6814 34.4054 24.8948 31.8254 28.2701 29.05C27.9588 28.7908 26.7484 28.1485 26.374 27.9647L20.1572 24.9004C19.354 24.5044 18.8466 23.6951 18.8466 22.8097V20.4049C19.0213 20.2088 19.2211 19.9568 19.4347 19.6593C20.282 18.4794 20.923 17.1814 21.3672 15.8197C22.1646 15.5772 22.752 14.8512 22.752 13.9883V11.4213C22.752 10.8567 22.4972 10.3521 22.1015 9.99884V6.28812C22.1015 6.28812 22.8746 0.51355 14.9427 0.51355C7.01077 0.51355 7.78392 6.28812 7.78392 6.28812V9.99884C7.38743 10.3521 7.13339 10.8567 7.13339 11.4213V13.9883C7.13339 14.6644 7.4939 15.2594 8.03356 15.6033C8.68409 18.3954 10.3875 20.4049 10.3875 20.4049V22.7504C10.3868 23.6046 9.91246 24.3915 9.15106 24.8012Z" fill="white"/>
</svg>
